# xmcd CD database file
#
# Track frame offsets:
#	150
#	22185
#	42867
#
# Disc length: 4440 seconds
#
# Revision: 0
# Processed by: cddbd v1.5PL3 Copyright (c) Steve Scherf et al.
# Submitted via: CDex 1.50
#
DISCID=1f115603
DTITLE=笹川美和 - 金木犀
DYEAR=2003
DGENRE=JPop
TTITLE0=金木犀
TTITLE1=初失恋
TTITLE2=2nd session
EXTD=YEAR: 2003
EXTT0=
EXTT1=
EXTT2=
PLAYORDER=
